<?xml version="1.0" encoding="UTF-8" standalone="no"?>
<svg xmlns="http://www.w3.org/2000/svg" width="1000" height="402" viewBox="0 0 1000 402" fill="none">
  <path d="M961.72 17.77H38.28C26.42 17.77 16.77 27.42 16.77 39.28V362.72C16.77 374.58 26.42 384.23 38.28 384.23H961.72C973.58 384.23 983.23 374.58 983.23 362.72V39.28C983.23 27.42 973.58 17.77 961.72 17.77Z" fill="#ED1D24"/>
  <path d="M180.82 336.5L163.46 185.55H163.18L145.46 336.5H112.73L88.18 142.5H119.55L133.18 293.45H133.46L152.73 142.5H175.46L194.73 293.45H195L208.64 142.5H240L215.46 336.5H180.82Z" fill="white"/>
  <path d="M286.82 339.32C271.55 339.32 260.09 334.32 252.46 324.32C244.82 314.32 241 299.59 241 280.14V199.14C241 179.68 244.82 164.96 252.46 154.96C260.09 144.96 271.55 139.96 286.82 139.96C302.09 139.96 313.55 144.96 321.18 154.96C328.82 164.96 332.64 179.68 332.64 199.14V280.14C332.64 299.59 328.82 314.32 321.18 324.32C313.55 334.32 302.09 339.32 286.82 339.32ZM286.82 312.5C294.46 312.5 298.27 306.68 298.27 295.05V184.23C298.27 172.59 294.46 166.77 286.82 166.77C279.18 166.77 275.36 172.59 275.36 184.23V295.05C275.36 306.68 279.18 312.5 286.82 312.5Z" fill="white"/>
  <path d="M410.09 336.5L391.91 250.32H382.27V336.5H350.91V142.5H399.55C414.82 142.5 426.27 146.68 433.91 155.05C441.55 163.41 445.36 176.5 445.36 194.32V198.32C445.36 224.32 436.27 240.32 418.09 246.32L439.18 336.5H410.09ZM382.27 224.32H395.55C402.09 224.32 406.82 222.23 409.73 218.05C412.64 213.87 414.09 206.96 414.09 197.32V191.32C414.09 181.68 412.64 174.77 409.73 170.59C406.82 166.41 402.09 164.32 395.55 164.32H382.27V224.32Z" fill="white"/>
  <path d="M507.91 336.5L490.55 185.55H490.27L472.55 336.5H439.82L415.27 142.5H446.64L460.27 293.45H460.55L479.82 142.5H502.55L521.82 293.45H522.09L535.73 142.5H567.09L542.55 336.5H507.91Z" fill="white"/>
  <path d="M621.18 336.5H589.82V142.5H621.18V336.5Z" fill="white"/>
  <path d="M683.18 336.5H651.82V142.5H683.18V225.32H707.73V142.5H739.09V336.5H707.73V252.14H683.18V336.5Z" fill="white"/>
  <path d="M811.18 336.5H779.82V169.32H755.27V142.5H835.73V169.32H811.18V336.5Z" fill="white"/>
  <path d="M911.82 336.5H847.09V142.5H911.82V169.32H878.46V224.32H908.46V251.14H878.46V309.68H911.82V336.5Z" fill="white"/>
</svg>
